<svg xmlns="http://www.w3.org/2000/svg" viewBox="0 0 240 240" width="240" height="240"><path d="M 24 240 L 24 198 C 50 184, 80 180, 120 180 C 160 180, 190 184, 216 198 L 216 240 Z" fill="#222"></path><path d="M 100 188 L 120 206 L 140 188 L 134 184 L 120 196 L 106 184 Z" fill="#d97757" opacity="0.95"></path><path d="M 96 183 C 100 196, 110 204, 120 206 C 130 204, 140 196, 144 183" fill="none" stroke="#d97757" stroke-width="3" stroke-linecap="round"></path><rect x="124" y="202" width="12" height="7" rx="2" fill="#888" stroke="#1a1a1a" stroke-width="1.2"></rect><circle cx="128" cy="205.5" r="1.2" fill="#1a1a1a"></circle><path d="M 102 168 C 102 182, 104 188, 108 192 L 132 192 C 136 188, 138 182, 138 168 Z" fill="#d8a982" stroke="#1a1a1a" stroke-width="1.5"></path><path d="M 102 168 C 110 174, 130 174, 138 168 L 138 174 C 130 178, 110 178, 102 174 Z" fill="#b08560" opacity="0.6"></path><path d="M 60 100 C 60 75, 70 56, 90 48 C 105 42, 135 42, 150 48 C 170 56, 180 75, 180 100 C 180 130, 178 152, 168 162 C 158 172, 142 178, 120 178 C 98 178, 82 172, 72 162 C 62 152, 60 130, 60 100 Z" fill="#d8a982" stroke="#1a1a1a" stroke-width="1.8"></path><path d="M 70 130 C 76 148, 86 158, 100 162 C 88 162, 76 156, 70 144 Z" fill="#b08560" opacity="0.35"></path><path d="M 170 130 C 164 148, 154 158, 140 162 C 152 162, 164 156, 170 144 Z" fill="#b08560" opacity="0.35"></path><circle cx="80" cy="158" r="0.9" fill="#8a7766" opacity="0.65"></circle><circle cx="88" cy="162" r="0.9" fill="#8a7766" opacity="0.65"></circle><circle cx="96" cy="164" r="0.9" fill="#8a7766" opacity="0.65"></circle><circle cx="104" cy="166" r="0.9" fill="#8a7766" opacity="0.65"></circle><circle cx="112" cy="167" r="0.9" fill="#8a7766" opacity="0.65"></circle><circle cx="120" cy="167" r="0.9" fill="#8a7766" opacity="0.65"></circle><circle cx="128" cy="167" r="0.9" fill="#8a7766" opacity="0.65"></circle><circle cx="136" cy="166" r="0.9" fill="#8a7766" opacity="0.65"></circle><circle cx="144" cy="164" r="0.9" fill="#8a7766" opacity="0.65"></circle><circle cx="152" cy="162" r="0.9" fill="#8a7766" opacity="0.65"></circle><circle cx="160" cy="158" r="0.9" fill="#8a7766" opacity="0.65"></circle><circle cx="82" cy="150" r="0.9" fill="#8a7766" opacity="0.65"></circle><circle cx="90" cy="154" r="0.9" fill="#8a7766" opacity="0.65"></circle><circle cx="98" cy="156" r="0.9" fill="#8a7766" opacity="0.65"></circle><circle cx="106" cy="158" r="0.9" fill="#8a7766" opacity="0.65"></circle><circle cx="114" cy="159" r="0.9" fill="#8a7766" opacity="0.65"></circle><circle cx="120" cy="159" r="0.9" fill="#8a7766" opacity="0.65"></circle><circle cx="126" cy="159" r="0.9" fill="#8a7766" opacity="0.65"></circle><circle cx="134" cy="158" r="0.9" fill="#8a7766" opacity="0.65"></circle><circle cx="142" cy="156" r="0.9" fill="#8a7766" opacity="0.65"></circle><circle cx="150" cy="154" r="0.9" fill="#8a7766" opacity="0.65"></circle><circle cx="158" cy="150" r="0.9" fill="#8a7766" opacity="0.65"></circle><path d="M 56 108 C 50 110, 48 122, 54 134 C 58 142, 64 144, 66 142 L 66 110 Z" fill="#d8a982" stroke="#1a1a1a" stroke-width="1.5"></path><path d="M 184 108 C 190 110, 192 122, 186 134 C 182 142, 176 144, 174 142 L 174 110 Z" fill="#d8a982" stroke="#1a1a1a" stroke-width="1.5"></path><path d="M 58 118 C 56 124, 58 132, 62 136" fill="none" stroke="#b08560" stroke-width="1.2"></path><path d="M 182 118 C 184 124, 182 132, 178 136" fill="none" stroke="#b08560" stroke-width="1.2"></path><path d="M 60 96 C 56 116, 58 140, 64 156 C 62 142, 62 124, 64 110 Z" fill="#cfc8be" stroke="#1a1a1a" stroke-width="1.2"></path><path d="M 180 96 C 184 116, 182 140, 176 156 C 178 142, 178 124, 176 110 Z" fill="#cfc8be" stroke="#1a1a1a" stroke-width="1.2"></path><path d="M 64 130 L 64 150" stroke="#9a9389" stroke-width="1.2" stroke-linecap="round"></path><path d="M 176 130 L 176 150" stroke="#9a9389" stroke-width="1.2" stroke-linecap="round"></path><path d="M 62 78 C 60 56, 78 40, 120 38 C 162 40, 180 56, 178 78 C 178 86, 174 92, 168 96 L 72 96 C 66 92, 62 86, 62 78 Z" fill="#1f3a5f" stroke="#1a1a1a" stroke-width="1.6"></path><path d="M 90 42 C 90 58, 90 78, 90 96" fill="none" stroke="#2a4d75" stroke-width="0.9" opacity="0.7"></path><path d="M 120 38 C 120 56, 120 78, 120 96" fill="none" stroke="#2a4d75" stroke-width="0.9" opacity="0.7"></path><path d="M 150 42 C 150 58, 150 78, 150 96" fill="none" stroke="#2a4d75" stroke-width="0.9" opacity="0.7"></path><path d="M 100 86 L 140 86 L 140 96 L 100 96 Z" fill="#d97757"></path><path d="M 78 96 C 88 78, 110 72, 120 72 C 130 72, 152 78, 162 96 C 152 90, 130 86, 120 86 C 110 86, 88 90, 78 96 Z" fill="#2a4d75" stroke="#1a1a1a" stroke-width="1.4"></path><path d="M 80 95 C 100 90, 140 90, 160 95" fill="none" stroke="#1a1a1a" stroke-width="1" opacity="0.5"></path><path d="M 68 100 C 70 96, 76 96, 82 98" fill="none" stroke="#cfc8be" stroke-width="3" stroke-linecap="round"></path><path d="M 172 100 C 170 96, 164 96, 158 98" fill="none" stroke="#cfc8be" stroke-width="3" stroke-linecap="round"></path><path d="M 78 92 C 78 84, 86 80, 96 82 C 104 84, 106 92, 102 98 C 96 102, 84 100, 80 96 Z" fill="#3a4555" stroke="#1a1a1a" stroke-width="1.8"></path><path d="M 162 92 C 162 84, 154 80, 144 82 C 136 84, 134 92, 138 98 C 144 102, 156 100, 160 96 Z" fill="#3a4555" stroke="#1a1a1a" stroke-width="1.8"></path><path d="M 104 89 L 136 89" stroke="#1a1a1a" stroke-width="2" stroke-linecap="round"></path><path d="M 84 86 C 88 84, 92 84, 94 86" stroke="#fff" stroke-width="1.2" stroke-linecap="round" fill="none" opacity="0.7"></path><path d="M 146 86 C 150 84, 154 84, 156 86" stroke="#fff" stroke-width="1.2" stroke-linecap="round" fill="none" opacity="0.7"></path><path d="M 86 108 C 100 105, 140 105, 154 108" fill="none" stroke="#b08560" stroke-width="1.2" stroke-linecap="round" opacity="0.7"></path><path d="M 86 114 C 100 111, 140 111, 154 114" fill="none" stroke="#b08560" stroke-width="1.2" stroke-linecap="round" opacity="0.6"></path><path d="M 92 120 C 104 117, 136 117, 148 120" fill="none" stroke="#b08560" stroke-width="1" stroke-linecap="round" opacity="0.5"></path><path d="M 78 130 C 88 124, 100 126, 108 130" fill="none" stroke="#9a9389" stroke-width="4" stroke-linecap="round"></path><path d="M 162 130 C 152 126, 140 124, 132 130" fill="none" stroke="#9a9389" stroke-width="4" stroke-linecap="round"></path><ellipse cx="94" cy="138" rx="7" ry="4.5" fill="#fff" stroke="#1a1a1a" stroke-width="1.2"></ellipse><ellipse cx="146" cy="138" rx="7" ry="4.5" fill="#fff" stroke="#1a1a1a" stroke-width="1.2"></ellipse><circle cx="95" cy="138" r="2.6" fill="#5a4a3a"></circle><circle cx="147" cy="138" r="2.6" fill="#5a4a3a"></circle><circle cx="95.5" cy="138" r="1.2" fill="#1a1a1a"></circle><circle cx="147.5" cy="138" r="1.2" fill="#1a1a1a"></circle><circle cx="94" cy="136.5" r="0.7" fill="#fff"></circle><circle cx="146" cy="136.5" r="0.7" fill="#fff"></circle><path d="M 86 142 C 92 145, 100 145, 104 143" fill="none" stroke="#b08560" stroke-width="1" opacity="0.7"></path><path d="M 154 142 C 148 145, 140 145, 136 143" fill="none" stroke="#b08560" stroke-width="1" opacity="0.7"></path><path d="M 82 135 L 77 135" stroke="#b08560" stroke-width="0.9" stroke-linecap="round" opacity="0.6"></path><path d="M 82 138 L 77 138" stroke="#b08560" stroke-width="0.9" stroke-linecap="round" opacity="0.6"></path><path d="M 82 141 L 77 141" stroke="#b08560" stroke-width="0.9" stroke-linecap="round" opacity="0.6"></path><path d="M 158 135 L 163 135" stroke="#b08560" stroke-width="0.9" stroke-linecap="round" opacity="0.6"></path><path d="M 158 138 L 163 138" stroke="#b08560" stroke-width="0.9" stroke-linecap="round" opacity="0.6"></path><path d="M 158 141 L 163 141" stroke="#b08560" stroke-width="0.9" stroke-linecap="round" opacity="0.6"></path><path d="M 116 138 C 114 148, 112 156, 114 160 C 116 162, 124 162, 126 160 C 128 156, 126 148, 124 138" fill="none" stroke="#1a1a1a" stroke-width="1.4" stroke-linecap="round"></path><path d="M 116 159 C 117 161, 119 161, 119 159" fill="none" stroke="#1a1a1a" stroke-width="0.9"></path><path d="M 121 159 C 121 161, 123 161, 124 159" fill="none" stroke="#1a1a1a" stroke-width="0.9"></path><path d="M 110 162 C 102 168, 100 172, 100 176" fill="none" stroke="#b08560" stroke-width="0.9" opacity="0.55"></path><path d="M 130 162 C 138 168, 140 172, 140 176" fill="none" stroke="#b08560" stroke-width="0.9" opacity="0.55"></path><path d="M 104 170 C 112 172, 128 173, 138 168" fill="none" stroke="#1a1a1a" stroke-width="2" stroke-linecap="round"></path><path d="M 120 178 L 120 184" stroke="#b08560" stroke-width="1" stroke-linecap="round" opacity="0.5"></path></svg>